<svg xmlns="http://www.w3.org/2000/svg" viewBox="0 0 32 32"><path fill="#8c9eff" d="M16.92,5.38a1,1,0,0,0,0-.76,1,1,0,0,0-.21-.33l-2-2a1,1,0,0,0-1.42,1.42l.34.33C8.26,4.45,4,9.65,4,16c0,5.94,3.8,11,8.84,11.88H13a1,1,0,0,0,.16-2C9.08,25.23,6,21,6,16c0-5.2,3.32-9.48,7.54-9.95l-.25.24a1,1,0,0,0,0,1.42,1,1,0,0,0,1.42,0l2-2A1,1,0,0,0,16.92,5.38Z"/><path fill="#5f7cf9" d="M28,16c0-5.94-3.8-11-8.84-11.88a1,1,0,1,0-.32,2C22.92,6.77,26,11,26,16c0,5.2-3.32,9.48-7.54,10l.25-.24a1,1,0,0,0-1.42-1.42l-2,2a1,1,0,0,0-.21.33,1,1,0,0,0,0,.76,1,1,0,0,0,.21.33l2,2a1,1,0,0,0,1.42,0,1,1,0,0,0,0-1.42L18.37,28C23.74,27.55,28,22.35,28,16Z"/></svg>